<svg width="442" height="171" viewBox="0 0 442 171" fill="none" xmlns="http://www.w3.org/2000/svg">
<g clip-path="url(#clip0_1058_2)">
<path d="M362.774 0C388.919 0 415.064 0 442.001 0C442.001 55.9712 442.001 111.942 442.001 169.609C400.72 169.609 359.439 169.609 316.906 169.609C316.906 170.082 316.906 169.15 316.906 169.609C318.283 169.305 315.489 169.923 316.906 169.609C331.93 166.086 346.318 159.178 355.477 146.182C359.576 139.135 361.188 131.663 362.774 123.732C311.861 123.732 255.388 123.732 202.932 123.732L218.737 116.262C219.979 115.636 221.22 115.011 222.499 114.366C223.857 113.692 225.215 113.018 226.615 112.324C228.048 111.604 229.482 110.885 230.958 110.144C235.701 107.766 240.45 105.401 245.2 103.036C248.491 101.39 251.781 99.744 255.072 98.0974C261.968 94.6477 268.869 91.2046 275.771 87.7656C283.756 83.7867 291.738 79.7978 299.714 75.8036C307.387 71.9629 315.062 68.1285 322.739 64.2971C326.008 62.6651 329.276 61.0315 332.542 59.3964C337.099 57.1174 341.66 54.8456 346.22 52.5757C347.581 51.8932 348.943 51.2109 350.346 50.5077C351.583 49.8938 352.82 49.2799 354.096 48.6473C355.173 48.1093 356.251 47.5714 357.363 47.0171L362.774 44.4878C362.774 29.3481 362.774 15.5986 362.774 0Z" fill="#006836"/>
<path d="M79.2264 169.748C53.0817 169.748 26.937 169.748 0 169.748C4.89208e-06 113.776 9.78416e-06 57.8052 1.48245e-05 0.137925C41.2811 0.137928 82.5623 0.137932 125.094 0.137936C125.094 0.596716 125.094 -0.334747 125.094 0.137936C126.512 -0.175955 123.718 0.442594 125.094 0.137936C110.071 3.66202 95.684 10.5691 86.5236 23.5658C82.4245 30.6126 80.8123 38.0849 79.2264 46.016C130.14 46.016 186.613 46.016 239.069 46.016L223.264 53.4856C222.022 54.1112 220.78 54.737 219.502 55.3816C218.144 56.0556 216.786 56.7296 215.386 57.424C213.953 58.1433 212.519 58.8627 211.042 59.6037C206.3 61.9814 201.551 64.347 196.801 66.7121C193.51 68.3576 190.22 70.0036 186.928 71.6503C180.033 75.1 173.132 78.5431 166.23 81.9821C158.244 85.961 150.263 89.9499 142.286 93.9441C134.614 97.7847 126.939 101.619 119.262 105.451C115.994 107.083 112.726 108.716 109.458 110.351C104.902 112.63 100.342 114.902 95.7804 117.172C94.4193 117.854 93.0582 118.537 91.6558 119.24C90.4183 119.854 89.1809 120.468 87.9059 121.1C86.8274 121.638 85.7488 122.176 84.6377 122.731L79.2264 125.26C79.2264 140.399 79.2264 154.149 79.2264 169.748Z" fill="#006836"/>
</g>
<defs>
<clipPath id="clip0_1058_2">
<rect width="442" height="171" fill="white"/>
</clipPath>
</defs>
</svg>
